# xmcd
#
# Track frame offsets: 
#        150
#        13075
#        29670
#        51927
#        68417
#        87800
#        101540
#        116572
#        129627
#        148750
#        165820
#        181627
#        197890
#        212812
#        232145
#
# Disc length: 3388 seconds
#
# Revision: 2
# Processed by: cddbd v1.4PL0 Copyright (c) Steve Scherf et al.
# Submitted via: ExactAudioCopy v0.90b2
#
DISCID=cd0d3a0f
DTITLE=Alabama - For Our Fans
DYEAR=1900
DGENRE=Country
TTITLE0=I'm In A Hurry (And Don't Know Why)
TTITLE1=Can't Keep A Good Man Down
TTITLE2=Take Me Down
TTITLE3=Forever's As Far As I'll Go
TTITLE4="You've Got" The Touch
TTITLE5=Face To Face
TTITLE6=Born Country
TTITLE7=Here We Are
TTITLE8=There's No Way
TTITLE9=Then Again
TTITLE10=Down Home
TTITLE11=If I Had You
TTITLE12=Take A Little Trip
TTITLE13=Once Upon A Lifetime
TTITLE14=Pass It On Down
EXTD=
EXTT0=
EXTT1=
EXTT2=
EXTT3=
EXTT4=
EXTT5=
EXTT6=
EXTT7=
EXTT8=
EXTT9=
EXTT10=
EXTT11=
EXTT12=
EXTT13=
EXTT14=
PLAYORDER=
